# Blender v2.80 (sub 75) OBJ File: ''
# www.blender.org
mtllib Text.mtl
o Text
v 0.884417 0.175427 0.000000
v 0.851605 0.173385 0.000000
v 0.820334 0.167422 0.000000
v 0.790855 0.157786 0.000000
v 0.763417 0.144723 0.000000
v 0.738271 0.128480 0.000000
v 0.715667 0.109302 0.000000
v 0.695855 0.087437 0.000000
v 0.679084 0.063131 0.000000
v 0.665605 0.036630 0.000000
v 0.655667 0.008181 0.000000
v 0.649521 -0.021968 0.000000
v 0.647417 -0.053573 0.000000
v 0.649445 -0.087246 0.000000
v 0.655389 -0.119120 0.000000
v 0.665042 -0.148979 0.000000
v 0.678195 -0.176610 0.000000
v 0.694639 -0.201797 0.000000
v 0.714167 -0.224323 0.000000
v 0.736570 -0.243975 0.000000
v 0.761639 -0.260536 0.000000
v 0.789167 -0.273792 0.000000
v 0.818945 -0.283527 -0.000000
v 0.850764 -0.289526 -0.000000
v 0.884417 -0.291573 -0.000000
v 0.919448 -0.289602 -0.000000
v 0.952417 -0.283805 -0.000000
v 0.983136 -0.274354 0.000000
v 1.011417 -0.261425 0.000000
v 1.037073 -0.245190 0.000000
v 1.059917 -0.225823 0.000000
v 1.079761 -0.203498 0.000000
v 1.096417 -0.178388 0.000000
v 1.109699 -0.150667 0.000000
v 1.119418 -0.120508 0.000000
v 1.125386 -0.088086 0.000000
v 1.127417 -0.053573 0.000000
v 1.125329 -0.021128 0.000000
v 1.119209 0.009570 0.000000
v 1.109277 0.038317 0.000000
v 1.095751 0.064908 0.000000
v 1.078850 0.089138 0.000000
v 1.058793 0.110802 0.000000
v 1.035798 0.129695 0.000000
v 1.010084 0.145612 0.000000
v 0.981871 0.158349 0.000000
v 0.951376 0.167700 0.000000
v 0.918819 0.173461 0.000000
v 0.883417 0.095427 0.000000
v 0.905124 0.094137 0.000000
v 0.925653 0.090357 0.000000
v 0.944870 0.084224 0.000000
v 0.962639 0.075871 0.000000
v 0.978825 0.065435 0.000000
v 0.993292 0.053052 0.000000
v 1.005905 0.038856 0.000000
v 1.016528 0.022982 0.000000
v 1.025026 0.005567 0.000000
v 1.031264 -0.013254 0.000000
v 1.035106 -0.033346 0.000000
v 1.036417 -0.054573 0.000000
v 1.035202 -0.078039 0.000000
v 1.031612 -0.099883 0.000000
v 1.025730 -0.120026 0.000000
v 1.017639 -0.138388 0.000000
v 1.007424 -0.154889 0.000000
v 0.995167 -0.169448 0.000000
v 0.980952 -0.181987 0.000000
v 0.964862 -0.192425 0.000000
v 0.946980 -0.200683 0.000000
v 0.927390 -0.206680 0.000000
v 0.906174 -0.210337 0.000000
v 0.883417 -0.211573 0.000000
v 0.862498 -0.210279 0.000000
v 0.842815 -0.206467 0.000000
v 0.824480 -0.200245 0.000000
v 0.807602 -0.191721 0.000000
v 0.792294 -0.181003 0.000000
v 0.778667 -0.168198 0.000000
v 0.766831 -0.153414 0.000000
v 0.756899 -0.136758 0.000000
v 0.748980 -0.118339 0.000000
v 0.743186 -0.098263 0.000000
v 0.739628 -0.076639 0.000000
v 0.738417 -0.053573 0.000000
v 0.739666 -0.032576 0.000000
v 0.743325 -0.012675 0.000000
v 0.749261 0.005989 0.000000
v 0.757343 0.023279 0.000000
v 0.767439 0.039054 0.000000
v 0.779417 0.053177 0.000000
v 0.793145 0.065508 0.000000
v 0.808491 0.075908 0.000000
v 0.825323 0.084239 0.000000
v 0.843510 0.090362 0.000000
v 0.862918 0.094137 0.000000
v 0.546417 0.399427 0.000000
v 0.457417 0.399427 0.000000
v 0.457417 -0.282573 0.000000
v 0.546417 -0.282573 0.000000
v 0.327417 0.399427 0.000000
v 0.238417 0.399427 0.000000
v 0.238417 -0.282573 0.000000
v 0.327417 -0.282573 0.000000
v 0.132417 -0.152573 0.000000
v 0.119436 -0.160778 0.000000
v 0.106482 -0.168379 0.000000
v 0.093542 -0.175354 0.000000
v 0.080602 -0.181684 0.000000
v 0.067649 -0.187348 0.000000
v 0.054667 -0.192323 0.000000
v 0.041644 -0.196591 0.000000
v 0.028565 -0.200129 0.000000
v 0.015417 -0.202917 0.000000
v 0.002185 -0.204934 0.000000
v -0.011143 -0.206160 0.000000
v -0.024583 -0.206573 0.000000
v -0.045353 -0.205617 0.000000
v -0.064657 -0.202754 0.000000
v -0.082489 -0.197995 0.000000
v -0.098842 -0.191351 0.000000
v -0.113709 -0.182832 0.000000
v -0.127083 -0.172448 0.000000
v -0.138957 -0.160210 0.000000
v -0.149324 -0.146129 0.000000
v -0.158177 -0.130214 0.000000
v -0.165509 -0.112476 0.000000
v -0.171313 -0.092926 0.000000
v -0.175583 -0.071573 0.000000
v 0.140417 -0.071573 0.000000
v 0.138853 -0.031842 0.000000
v 0.134237 0.004362 0.000000
v 0.126683 0.037052 0.000000
v 0.116306 0.066242 0.000000
v 0.103221 0.091945 0.000000
v 0.087542 0.114177 0.000000
v 0.069384 0.132950 0.000000
v 0.048862 0.148279 0.000000
v 0.026089 0.160177 0.000000
v 0.001181 0.168658 0.000000
v -0.025748 0.173737 0.000000
v -0.054583 0.175427 0.000000
v -0.084763 0.173538 0.000000
v -0.113194 0.167982 0.000000
v -0.139708 0.158927 0.000000
v -0.164138 0.146538 0.000000
v -0.186319 0.130982 0.000000
v -0.206083 0.112427 0.000000
v -0.223263 0.091038 0.000000
v -0.237694 0.066982 0.000000
v -0.249208 0.040427 0.000000
v -0.257638 0.011538 0.000000
v -0.262819 -0.019518 0.000000
v -0.264583 -0.052573 0.000000
v -0.262967 -0.083324 0.000000
v -0.258157 -0.113332 0.000000
v -0.250208 -0.142229 0.000000
v -0.239175 -0.169647 0.000000
v -0.225115 -0.195218 0.000000
v -0.208083 -0.218573 0.000000
v -0.188134 -0.239345 0.000000
v -0.165324 -0.257166 0.000000
v -0.139708 -0.271667 0.000000
v -0.111342 -0.282481 0.000000
v -0.080282 -0.289239 -0.000000
v -0.046583 -0.291573 -0.000000
v -0.028127 -0.291218 -0.000000
v -0.010685 -0.290147 -0.000000
v 0.005855 -0.288354 -0.000000
v 0.021602 -0.285832 -0.000000
v 0.036669 -0.282574 -0.000000
v 0.051167 -0.278573 0.000000
v 0.065206 -0.273822 0.000000
v 0.078899 -0.268314 0.000000
v 0.092355 -0.262042 0.000000
v 0.105686 -0.254999 0.000000
v 0.119003 -0.247179 0.000000
v 0.132417 -0.238573 0.000000
v -0.173583 -0.012573 0.000000
v -0.169980 0.004526 0.000000
v -0.165175 0.020302 0.000000
v -0.159177 0.034724 0.000000
v -0.151990 0.047760 0.000000
v -0.143623 0.059380 0.000000
v -0.134083 0.069552 0.000000
v -0.123376 0.078245 0.000000
v -0.111509 0.085427 0.000000
v -0.098489 0.091067 0.000000
v -0.084324 0.095135 0.000000
v -0.069019 0.097599 0.000000
v -0.052583 0.098427 0.000000
v -0.037340 0.097541 0.000000
v -0.023138 0.094927 0.000000
v -0.010020 0.090646 0.000000
v 0.001973 0.084760 0.000000
v 0.012799 0.077333 0.000000
v 0.022417 0.068427 0.000000
v 0.030785 0.058104 0.000000
v 0.037861 0.046427 0.000000
v 0.043604 0.033458 0.000000
v 0.047973 0.019260 0.000000
v 0.050924 0.003895 0.000000
v 0.052417 -0.012573 0.000000
v -0.381583 0.399427 0.000000
v -0.479583 0.399427 0.000000
v -0.479583 0.102427 0.000000
v -0.861583 0.102427 0.000000
v -0.861583 0.399427 0.000000
v -0.959583 0.399427 0.000000
v -0.959583 -0.282573 0.000000
v -0.861583 -0.282573 0.000000
v -0.861583 0.014427 0.000000
v -0.479583 0.014427 0.000000
v -0.479583 -0.282573 0.000000
v -0.381583 -0.282573 0.000000
vn 0.0000 -0.0000 1.0000
usemtl None
s off
f 2//1 48//1 1//1
f 2//1 47//1 48//1
f 3//1 47//1 2//1
f 3//1 46//1 47//1
f 4//1 46//1 3//1
f 4//1 45//1 46//1
f 5//1 45//1 4//1
f 5//1 44//1 45//1
f 6//1 44//1 5//1
f 6//1 43//1 44//1
f 7//1 43//1 6//1
f 7//1 42//1 43//1
f 8//1 49//1 7//1
f 49//1 42//1 7//1
f 8//1 96//1 49//1
f 50//1 42//1 49//1
f 8//1 95//1 96//1
f 51//1 42//1 50//1
f 8//1 94//1 95//1
f 52//1 42//1 51//1
f 52//1 41//1 42//1
f 9//1 94//1 8//1
f 9//1 93//1 94//1
f 53//1 41//1 52//1
f 9//1 92//1 93//1
f 54//1 41//1 53//1
f 9//1 91//1 92//1
f 55//1 41//1 54//1
f 55//1 40//1 41//1
f 10//1 91//1 9//1
f 10//1 90//1 91//1
f 56//1 40//1 55//1
f 10//1 89//1 90//1
f 57//1 40//1 56//1
f 57//1 39//1 40//1
f 11//1 89//1 10//1
f 11//1 88//1 89//1
f 58//1 39//1 57//1
f 58//1 38//1 39//1
f 12//1 88//1 11//1
f 12//1 87//1 88//1
f 59//1 38//1 58//1
f 12//1 86//1 87//1
f 60//1 38//1 59//1
f 60//1 37//1 38//1
f 13//1 86//1 12//1
f 13//1 85//1 86//1
f 61//1 37//1 60//1
f 14//1 85//1 13//1
f 14//1 84//1 85//1
f 61//1 36//1 37//1
f 62//1 36//1 61//1
f 14//1 83//1 84//1
f 63//1 36//1 62//1
f 15//1 83//1 14//1
f 63//1 35//1 36//1
f 15//1 82//1 83//1
f 64//1 35//1 63//1
f 15//1 81//1 82//1
f 16//1 81//1 15//1
f 65//1 35//1 64//1
f 65//1 34//1 35//1
f 16//1 80//1 81//1
f 66//1 34//1 65//1
f 17//1 80//1 16//1
f 66//1 33//1 34//1
f 17//1 79//1 80//1
f 67//1 33//1 66//1
f 17//1 78//1 79//1
f 68//1 33//1 67//1
f 18//1 78//1 17//1
f 68//1 32//1 33//1
f 18//1 77//1 78//1
f 69//1 32//1 68//1
f 18//1 76//1 77//1
f 70//1 32//1 69//1
f 18//1 75//1 76//1
f 71//1 32//1 70//1
f 19//1 75//1 18//1
f 71//1 31//1 32//1
f 19//1 74//1 75//1
f 72//1 31//1 71//1
f 19//1 73//1 74//1
f 73//1 31//1 72//1
f 19//1 31//1 73//1
f 20//1 31//1 19//1
f 20//1 30//1 31//1
f 21//1 30//1 20//1
f 21//1 29//1 30//1
f 22//1 29//1 21//1
f 22//1 28//1 29//1
f 23//1 28//1 22//1
f 23//1 27//1 28//1
f 24//1 27//1 23//1
f 24//1 26//1 27//1
f 25//1 26//1 24//1
f 99//1 97//1 98//1
f 99//1 100//1 97//1
f 103//1 101//1 102//1
f 103//1 104//1 101//1
f 143//1 141//1 142//1
f 143//1 140//1 141//1
f 144//1 140//1 143//1
f 144//1 139//1 140//1
f 145//1 139//1 144//1
f 145//1 138//1 139//1
f 146//1 138//1 145//1
f 146//1 137//1 138//1
f 147//1 137//1 146//1
f 147//1 136//1 137//1
f 148//1 136//1 147//1
f 148//1 135//1 136//1
f 149//1 191//1 148//1
f 191//1 135//1 148//1
f 149//1 190//1 191//1
f 192//1 135//1 191//1
f 149//1 189//1 190//1
f 193//1 135//1 192//1
f 149//1 188//1 189//1
f 194//1 135//1 193//1
f 194//1 134//1 135//1
f 149//1 187//1 188//1
f 150//1 187//1 149//1
f 195//1 134//1 194//1
f 150//1 186//1 187//1
f 196//1 134//1 195//1
f 150//1 185//1 186//1
f 197//1 134//1 196//1
f 150//1 184//1 185//1
f 198//1 134//1 197//1
f 151//1 184//1 150//1
f 198//1 133//1 134//1
f 151//1 183//1 184//1
f 199//1 133//1 198//1
f 151//1 182//1 183//1
f 200//1 133//1 199//1
f 152//1 182//1 151//1
f 200//1 132//1 133//1
f 152//1 181//1 182//1
f 201//1 132//1 200//1
f 152//1 180//1 181//1
f 202//1 132//1 201//1
f 153//1 180//1 152//1
f 153//1 179//1 180//1
f 202//1 131//1 132//1
f 203//1 131//1 202//1
f 153//1 203//1 179//1
f 153//1 131//1 203//1
f 154//1 131//1 153//1
f 154//1 130//1 131//1
f 155//1 129//1 154//1
f 129//1 130//1 154//1
f 155//1 128//1 129//1
f 156//1 128//1 155//1
f 156//1 127//1 128//1
f 156//1 126//1 127//1
f 157//1 126//1 156//1
f 157//1 125//1 126//1
f 158//1 125//1 157//1
f 158//1 124//1 125//1
f 106//1 178//1 105//1
f 158//1 123//1 124//1
f 107//1 178//1 106//1
f 108//1 178//1 107//1
f 159//1 123//1 158//1
f 159//1 122//1 123//1
f 109//1 178//1 108//1
f 110//1 178//1 109//1
f 159//1 121//1 122//1
f 111//1 178//1 110//1
f 159//1 120//1 121//1
f 112//1 178//1 111//1
f 160//1 120//1 159//1
f 113//1 178//1 112//1
f 160//1 119//1 120//1
f 114//1 178//1 113//1
f 160//1 118//1 119//1
f 115//1 178//1 114//1
f 116//1 178//1 115//1
f 160//1 117//1 118//1
f 117//1 178//1 116//1
f 160//1 178//1 117//1
f 161//1 178//1 160//1
f 161//1 177//1 178//1
f 162//1 177//1 161//1
f 162//1 176//1 177//1
f 162//1 175//1 176//1
f 163//1 175//1 162//1
f 163//1 174//1 175//1
f 163//1 173//1 174//1
f 164//1 173//1 163//1
f 164//1 172//1 173//1
f 164//1 171//1 172//1
f 165//1 171//1 164//1
f 165//1 170//1 171//1
f 165//1 169//1 170//1
f 165//1 168//1 169//1
f 166//1 168//1 165//1
f 166//1 167//1 168//1
f 210//1 208//1 209//1
f 210//1 207//1 208//1
f 206//1 204//1 205//1
f 206//1 215//1 204//1
f 210//1 212//1 207//1
f 212//1 206//1 207//1
f 212//1 213//1 206//1
f 213//1 215//1 206//1
f 210//1 211//1 212//1
f 214//1 215//1 213//1
